<svg width="56" height="56" viewBox="0 0 56 56" fill="none" xmlns="http://www.w3.org/2000/svg">
<rect width="56" height="56" rx="8" fill="#D4AF37" fill-opacity="0.05"/>
<rect x="0.5" y="0.5" width="55" height="55" rx="7.5" stroke="#D4AF37" stroke-opacity="0.2"/>
<path d="M17.5312 31.1562L15.5 29.6875L21.75 19.6875L25.5 24.0625L30.5 15.9375L34.25 21.5625L38.4688 14.875L40.5 16.3438L34.3125 26.1562L30.5938 20.5625L25.8438 28.2812L22.0625 23.875L17.5312 31.1562ZM32.375 36.125C33.25 36.125 33.9896 35.8229 34.5938 35.2188C35.1979 34.6146 35.5 33.875 35.5 33C35.5 32.125 35.1979 31.3854 34.5938 30.7812C33.9896 30.1771 33.25 29.875 32.375 29.875C31.5 29.875 30.7604 30.1771 30.1562 30.7812C29.5521 31.3854 29.25 32.125 29.25 33C29.25 33.875 29.5521 34.6146 30.1562 35.2188C30.7604 35.8229 31.5 36.125 32.375 36.125ZM38.75 41.125L35.375 37.75C34.9375 38.0417 34.4635 38.2604 33.9531 38.4062C33.4427 38.5521 32.9167 38.625 32.375 38.625C30.8125 38.625 29.4844 38.0781 28.3906 36.9844C27.2969 35.8906 26.75 34.5625 26.75 33C26.75 31.4375 27.2969 30.1094 28.3906 29.0156C29.4844 27.9219 30.8125 27.375 32.375 27.375C33.9375 27.375 35.2656 27.9219 36.3594 29.0156C37.4531 30.1094 38 31.4375 38 33C38 33.5417 37.9271 34.0677 37.7812 34.5781C37.6354 35.0885 37.4167 35.5625 37.125 36L40.5 39.375L38.75 41.125Z" fill="#D4AF37"/>
</svg>
