<svg width="56" height="56" viewBox="0 0 56 56" fill="none" xmlns="http://www.w3.org/2000/svg">
<rect width="56" height="56" rx="8" fill="#D4AF37" fill-opacity="0.05"/>
<rect x="0.5" y="0.5" width="55" height="55" rx="7.5" stroke="#D4AF37" stroke-opacity="0.2"/>
<path d="M27.3125 35.1875C25.3125 35.0833 23.625 34.3125 22.25 32.875C20.875 31.4375 20.1875 29.7083 20.1875 27.6875C20.1875 25.6042 20.9167 23.8333 22.375 22.375C23.8333 20.9167 25.6042 20.1875 27.6875 20.1875C29.7083 20.1875 31.4375 20.875 32.875 22.25C34.3125 23.625 35.0833 25.3125 35.1875 27.3125L32.5625 26.5312C32.2917 25.4062 31.7083 24.4844 30.8125 23.7656C29.9167 23.0469 28.875 22.6875 27.6875 22.6875C26.3125 22.6875 25.1354 23.1771 24.1562 24.1562C23.1771 25.1354 22.6875 26.3125 22.6875 27.6875C22.6875 28.875 23.0469 29.9167 23.7656 30.8125C24.4844 31.7083 25.4062 32.2917 26.5312 32.5625L27.3125 35.1875ZM28.8125 40.125C28.625 40.1667 28.4375 40.1875 28.25 40.1875C28.0625 40.1875 27.875 40.1875 27.6875 40.1875C25.9583 40.1875 24.3333 39.8594 22.8125 39.2031C21.2917 38.5469 19.9688 37.6562 18.8438 36.5312C17.7188 35.4062 16.8281 34.0833 16.1719 32.5625C15.5156 31.0417 15.1875 29.4167 15.1875 27.6875C15.1875 25.9583 15.5156 24.3333 16.1719 22.8125C16.8281 21.2917 17.7188 19.9688 18.8438 18.8438C19.9688 17.7188 21.2917 16.8281 22.8125 16.1719C24.3333 15.5156 25.9583 15.1875 27.6875 15.1875C29.4167 15.1875 31.0417 15.5156 32.5625 16.1719C34.0833 16.8281 35.4062 17.7188 36.5312 18.8438C37.6562 19.9688 38.5469 21.2917 39.2031 22.8125C39.8594 24.3333 40.1875 25.9583 40.1875 27.6875C40.1875 27.875 40.1875 28.0625 40.1875 28.25C40.1875 28.4375 40.1667 28.625 40.125 28.8125L37.6875 28.0625V27.6875C37.6875 24.8958 36.7188 22.5312 34.7812 20.5938C32.8438 18.6562 30.4792 17.6875 27.6875 17.6875C24.8958 17.6875 22.5312 18.6562 20.5938 20.5938C18.6562 22.5312 17.6875 24.8958 17.6875 27.6875C17.6875 30.4792 18.6562 32.8438 20.5938 34.7812C22.5312 36.7188 24.8958 37.6875 27.6875 37.6875C27.75 37.6875 27.8125 37.6875 27.875 37.6875C27.9375 37.6875 28 37.6875 28.0625 37.6875L28.8125 40.125ZM38.3438 40.8125L33 35.4688L31.4375 40.1875L27.6875 27.6875L40.1875 31.4375L35.4688 33L40.8125 38.3438L38.3438 40.8125Z" fill="#D4AF37"/>
</svg>
