<svg width="56" height="56" viewBox="0 0 56 56" fill="none" xmlns="http://www.w3.org/2000/svg">
<rect width="56" height="56" rx="8" fill="#D4AF37" fill-opacity="0.05"/>
<rect x="0.5" y="0.5" width="55" height="55" rx="7.5" stroke="#D4AF37" stroke-opacity="0.2"/>
<path d="M23.0117 40.5C22.3242 40.5 21.7357 40.2552 21.2461 39.7656C20.7565 39.276 20.5117 38.6875 20.5117 38C20.5117 37.3125 20.7565 36.724 21.2461 36.2344C21.7357 35.7448 22.3242 35.5 23.0117 35.5C23.6992 35.5 24.2878 35.7448 24.7773 36.2344C25.2669 36.724 25.5117 37.3125 25.5117 38C25.5117 38.6875 25.2669 39.276 24.7773 39.7656C24.2878 40.2552 23.6992 40.5 23.0117 40.5ZM35.5117 40.5C34.8242 40.5 34.2357 40.2552 33.7461 39.7656C33.2565 39.276 33.0117 38.6875 33.0117 38C33.0117 37.3125 33.2565 36.724 33.7461 36.2344C34.2357 35.7448 34.8242 35.5 35.5117 35.5C36.1992 35.5 36.7878 35.7448 37.2773 36.2344C37.7669 36.724 38.0117 37.3125 38.0117 38C38.0117 38.6875 37.7669 39.276 37.2773 39.7656C36.7878 40.2552 36.1992 40.5 35.5117 40.5ZM21.9492 20.5L24.9492 26.75H33.6992L37.1367 20.5H21.9492ZM20.7617 18H39.1992C39.6784 18 40.043 18.2135 40.293 18.6406C40.543 19.0677 40.5534 19.5 40.3242 19.9375L35.8867 27.9375C35.6576 28.3542 35.3503 28.6771 34.9648 28.9062C34.5794 29.1354 34.1576 29.25 33.6992 29.25H24.3867L23.0117 31.75H38.0117V34.25H23.0117C22.0742 34.25 21.3659 33.8385 20.8867 33.0156C20.4076 32.1927 20.3867 31.375 20.8242 30.5625L22.5117 27.5L18.0117 18H15.5117V15.5H19.5742L20.7617 18ZM24.9492 26.75H33.6992H24.9492Z" fill="#D4AF37"/>
</svg>
