<svg width="56" height="56" viewBox="0 0 56 56" fill="none" xmlns="http://www.w3.org/2000/svg">
<rect width="56" height="56" rx="8" fill="#D4AF37" fill-opacity="0.05"/>
<rect x="0.5" y="0.5" width="55" height="55" rx="7.5" stroke="#D4AF37" stroke-opacity="0.2"/>
<path d="M35.6094 24.25L34.2344 21.25L31.2344 19.875L34.2344 18.5L35.6094 15.5L36.9844 18.5L39.9844 19.875L36.9844 21.25L35.6094 24.25ZM38.1094 33L37.1094 30.875L34.9844 29.875L37.1094 28.875L38.1094 26.75L39.1094 28.875L41.2344 29.875L39.1094 30.875L38.1094 33ZM21.8594 40.5L21.4844 37.5625C21.3385 37.5 21.1823 37.4167 21.0156 37.3125C20.849 37.2083 20.7135 37.1042 20.6094 37L17.8594 38.1875L14.7656 32.75L17.1094 31C17.1094 30.8333 17.1094 30.6667 17.1094 30.5C17.1094 30.3333 17.1094 30.1667 17.1094 30L14.7656 28.25L17.8594 22.8125L20.6094 24C20.7135 23.8958 20.849 23.7917 21.0156 23.6875C21.1823 23.5833 21.3385 23.5 21.4844 23.4375L21.8594 20.5H28.1094L28.4844 23.4375C28.6302 23.5 28.7865 23.5833 28.9531 23.6875C29.1198 23.7917 29.2552 23.8958 29.3594 24L32.1094 22.8125L35.2031 28.25L32.8594 30C32.8594 30.1667 32.8594 30.3333 32.8594 30.5C32.8594 30.6667 32.8594 30.8333 32.8594 31L35.2031 32.75L32.1094 38.1875L29.3594 37C29.2552 37.1042 29.1198 37.2083 28.9531 37.3125C28.7865 37.4167 28.6302 37.5 28.4844 37.5625L28.1094 40.5H21.8594ZM24.9844 34.25C26.026 34.25 26.9115 33.8854 27.6406 33.1562C28.3698 32.4271 28.7344 31.5417 28.7344 30.5C28.7344 29.4583 28.3698 28.5729 27.6406 27.8438C26.9115 27.1146 26.026 26.75 24.9844 26.75C23.9427 26.75 23.0573 27.1146 22.3281 27.8438C21.599 28.5729 21.2344 29.4583 21.2344 30.5C21.2344 31.5417 21.599 32.4271 22.3281 33.1562C23.0573 33.8854 23.9427 34.25 24.9844 34.25ZM24.0469 38H25.9219L26.1719 35.75C26.776 35.5833 27.2917 35.3698 27.7188 35.1094C28.1458 34.849 28.5677 34.5 28.9844 34.0625L31.0469 35L31.9219 33.4375L30.1094 32.0625C30.276 31.5833 30.3594 31.0625 30.3594 30.5C30.3594 29.9375 30.276 29.4167 30.1094 28.9375L31.9219 27.5625L31.0469 26L28.9844 26.9375C28.5677 26.5 28.1458 26.151 27.7188 25.8906C27.2917 25.6302 26.776 25.4167 26.1719 25.25L25.9219 23H24.0469L23.7969 25.25C23.1927 25.4167 22.6771 25.6302 22.25 25.8906C21.8229 26.151 21.401 26.5 20.9844 26.9375L18.9219 26L18.0469 27.5625L19.8594 28.9375C19.6927 29.4167 19.6042 29.9375 19.5938 30.5C19.5833 31.0625 19.6719 31.5833 19.8594 32.0625L18.0469 33.4375L18.9219 35L20.9844 34.0625C21.401 34.5 21.8229 34.849 22.25 35.1094C22.6771 35.3698 23.1927 35.5833 23.7969 35.75L24.0469 38Z" fill="#D4AF37"/>
</svg>
