<svg width="12" height="12" viewBox="0 0 12 12" fill="none" xmlns="http://www.w3.org/2000/svg">
<path d="M5.75255 11.5047C4.95826 11.5047 4.21363 11.3557 3.51863 11.0579C2.82363 10.76 2.20931 10.3505 1.67565 9.82923C1.1544 9.29557 0.74485 8.68124 0.446995 7.98625C0.149139 7.29125 0.000211344 6.54661 0.000211344 5.75233C0.000211344 4.94564 0.149139 4.1948 0.446995 3.4998C0.74485 2.8048 1.1544 2.19668 1.67565 1.67543C2.20931 1.15419 2.82363 0.744636 3.51863 0.446781C4.21363 0.148925 4.95826 -2.25494e-06 5.75255 -2.25494e-06C6.54683 -2.25494e-06 7.29147 0.148925 7.98646 0.446781C8.68146 0.744636 9.28958 1.15419 9.81083 1.67543C10.3445 2.19668 10.7602 2.8048 11.0581 3.4998C11.356 4.1948 11.5049 4.94564 11.5049 5.75233C11.5049 6.54661 11.356 7.29125 11.0581 7.98625C10.7602 8.68124 10.3445 9.29557 9.81083 9.82923C9.28958 10.3505 8.68146 10.76 7.98646 11.0579C7.29147 11.3557 6.54683 11.5047 5.75255 11.5047ZM5.75255 10.8345C6.65852 10.8345 7.48383 10.6235 8.22847 10.2015C8.97311 9.77959 9.57502 9.2149 10.0342 8.50749C10.5058 7.78768 10.7664 6.98099 10.8161 6.08742H5.41746V0.688789C4.5363 0.738431 3.73582 0.999055 3.016 1.47066C2.29618 1.92985 1.72529 2.53177 1.30333 3.27641C0.881367 4.02105 0.670386 4.84635 0.670386 5.75233C0.670386 6.45974 0.800698 7.12371 1.06132 7.74424C1.32195 8.35236 1.68185 8.89222 2.14105 9.36383C2.61265 9.82302 3.15252 10.1829 3.76064 10.4436C4.38117 10.7042 5.04514 10.8345 5.75255 10.8345ZM6.08763 5.41724H10.8161C10.7664 4.56091 10.5244 3.78524 10.0901 3.09025C9.6681 2.39525 9.10962 1.83677 8.41463 1.41481C7.71963 0.980439 6.94397 0.738431 6.08763 0.688789V5.41724Z" fill="#D6A94A"/>
</svg>
