<svg width="15" height="15" viewBox="0 0 15 15" fill="none" xmlns="http://www.w3.org/2000/svg">
<path d="M6.776 14.2971C6.63949 13.4904 6.27958 12.6216 5.69628 11.6908C5.11298 10.7476 4.28146 9.87267 3.20174 9.06598C2.13442 8.25929 1.06711 7.74425 -0.000207796 7.52086V6.73899C1.0547 6.49077 2.06616 6.03158 3.0342 5.3614C4.01464 4.67882 4.83374 3.85972 5.4915 2.9041C6.16168 1.92365 6.58984 0.955625 6.776 5.65521e-06H7.55787C7.66957 0.620537 7.89296 1.25969 8.22805 1.91745C8.56314 2.5628 8.9913 3.18334 9.51255 3.77905C10.0462 4.36235 10.6419 4.8898 11.2997 5.3614C12.2801 6.0564 13.2792 6.51559 14.2969 6.73899V7.52086C13.6143 7.65737 12.9069 7.93661 12.1746 8.35857C11.4548 8.78054 10.7846 9.28317 10.1641 9.86647C9.54358 10.4374 9.03474 11.0393 8.6376 11.6722C8.0543 12.603 7.69439 13.478 7.55787 14.2971H6.776Z" fill="#D6A94A"/>
</svg>
